<svg id="Calque_4" data-name="Calque 4" xmlns="http://www.w3.org/2000/svg" xmlns:xlink="http://www.w3.org/1999/xlink" viewBox="0 0 992 1080"><defs><style>.cls-1,.cls-2,.cls-43,.cls-44,.cls-46,.cls-48{fill:none;}.cls-2{clip-rule:evenodd;}.cls-3{fill:#ec6a5f;}.cls-4{fill:#0f6c90;}.cls-12,.cls-31,.cls-5,.cls-50{fill:#fff;}.cls-5,.cls-50{stroke:#000;}.cls-11,.cls-13,.cls-16,.cls-17,.cls-18,.cls-19,.cls-20,.cls-21,.cls-22,.cls-24,.cls-25,.cls-26,.cls-27,.cls-28,.cls-29,.cls-30,.cls-31,.cls-32,.cls-33,.cls-34,.cls-35,.cls-36,.cls-37,.cls-38,.cls-39,.cls-40,.cls-43,.cls-44,.cls-46,.cls-48,.cls-49,.cls-5,.cls-50{stroke-miterlimit:10;}.cls-6{fill:#3abcc7;}.cls-7{fill:#f18942;}.cls-8{fill:#9d3a82;}.cls-9{fill:#e8c232;}.cls-10{clip-path:url(#clip-path);}.cls-11{fill:#969;}.cls-11,.cls-13{stroke:#fff;}.cls-11,.cls-13,.cls-20,.cls-22,.cls-24,.cls-50{stroke-width:6px;}.cls-13{fill:#9a3c84;}.cls-14{clip-path:url(#clip-path-2);}.cls-15{clip-path:url(#clip-path-3);}.cls-16{fill:#fcc;}.cls-16,.cls-17,.cls-18,.cls-19,.cls-20,.cls-21,.cls-22{stroke:#ca00f4;}.cls-17,.cls-18,.cls-20{fill:#f1c83b;}.cls-18,.cls-44,.cls-46{stroke-width:7px;}.cls-19{fill:#c93;}.cls-21{fill:#960;}.cls-22{fill:#f1c740;}.cls-23{clip-path:url(#clip-path-4);}.cls-24,.cls-41{fill:#f28b44;}.cls-24,.cls-25,.cls-26,.cls-27,.cls-28,.cls-29,.cls-30,.cls-31,.cls-32,.cls-33,.cls-34,.cls-35,.cls-36,.cls-37,.cls-38,.cls-39,.cls-40{stroke:#002eef;}.cls-25{fill:#df4937;}.cls-26{fill:#0593a1;}.cls-27{fill:#fdd303;}.cls-28{fill:#f89f26;}.cls-29{fill:#485678;}.cls-30{fill:#00a683;}.cls-31{opacity:0.5;}.cls-32{fill:#3c3c3b;}.cls-33{fill:#575756;}.cls-34{fill:#ffcb86;}.cls-35{fill:#c6c6c6;}.cls-36{fill:#f6f6f6;}.cls-37{fill:#a48a7b;}.cls-38{fill:#e8a246;}.cls-39{fill:#7c6255;}.cls-40{fill:#fa8842;}.cls-42{clip-path:url(#clip-path-5);}.cls-43{stroke:#f18942;}.cls-43,.cls-48,.cls-49{stroke-width:5px;}.cls-44,.cls-46{stroke:#e8c232;}.cls-45{clip-path:url(#clip-path-6);}.cls-46{fill-rule:evenodd;}.cls-47{clip-path:url(#clip-path-7);}.cls-48,.cls-49{stroke:#3abcc7;}.cls-49{fill:#f9f;}.cls-50{font-size:150px;font-family:Marianne-Regular, Marianne;}</style><clipPath id="clip-path"><polygon class="cls-1" points="337.45 971.08 606.77 1027.4 656.98 787.33 387.66 731 337.45 971.08 337.45 971.08"/></clipPath><clipPath id="clip-path-2"><polygon class="cls-1" points="100.34 835.21 319.82 835.21 319.82 557 100.34 557 100.34 835.21 100.34 835.21"/></clipPath><clipPath id="clip-path-3"><path class="cls-1" d="M318.25,611.31c61,62,61,162.57,0,224.59a154.29,154.29,0,0,1-220.82,0c-61-62-61-162.57,0-224.59a154.29,154.29,0,0,1,220.82,0Z"/></clipPath><clipPath id="clip-path-4"><polygon class="cls-1" points="648.29 893 939.5 893 939.5 540 648.29 540 648.29 893 648.29 893"/></clipPath><clipPath id="clip-path-5"><polygon class="cls-1" points="655 539.17 923.64 539.17 923.64 224 655 224 655 539.17 655 539.17"/></clipPath><clipPath id="clip-path-6"><polyline class="cls-2" points="618 65.98 378.38 65.98 378.38 469 378.38 469 618 469"/></clipPath><clipPath id="clip-path-7"><polyline class="cls-1" points="98.02 228 98.02 539.91 98.02 539.91 323.29 539.91 323.29 228"/></clipPath></defs><title>Plan de travail 1</title><g id="Calque_2" data-name="Calque 2"><polygon class="cls-3" points="497.78 538.93 269.19 143.87 43.5 274.18 43.5 539.31 497.56 539.31 497.78 538.93"/><polygon class="cls-4" points="498 539.31 952.04 539.31 952.04 274.18 725.61 143.44 497.78 538.93 498 539.31"/><polygon class="cls-5" points="497.56 539.31 498 539.31 497.78 538.93 497.56 539.31"/><polygon class="cls-6" points="725.61 143.44 497.77 11.9 269.19 143.87 497.78 538.93 725.61 143.44"/><polygon class="cls-7" points="952.04 539.31 498 539.31 724.21 930.27 952.04 798.73 952.04 539.31"/><polygon class="cls-8" points="497.56 539.31 272.08 930.7 497.77 1061 724.21 930.27 498 539.31 497.56 539.31"/><polygon class="cls-9" points="43.5 539.31 43.5 798.73 272.08 930.7 497.56 539.31 43.5 539.31"/></g><g id="Calque_3" data-name="Calque 3"><g id="Calque_1" data-name="Calque 1"><g id="S"><g class="cls-10"><path class="cls-11" d="M502.13,884q28.64,2.82,29.23-12.51-1-3.46-29.62-10.57c-6.82-1.7-13.48-3.24-20.06-4.6q-9.09-1.92-10-1.73a16.41,16.41,0,0,1-2.89-.19c-2.1-.25-3.85-.39-5.29-.46a74.17,74.17,0,0,0-18.77,1.69q-3.69.76-15.7,10.81c-2.46,2-6.71,5.65-12.71,10.73s-11.19,9.36-15.85,13.14c-1.65,1.29-9.65,3.3-24.09,6.08q-10.8,2.13-21.18,3.79l37.7,81,.23.41.65-.34,59.89-33,20-70.14,8.87,2.43A140.91,140.91,0,0,0,502.13,884Z"/><path class="cls-12" d="M502.13,885c10.32.87,28.49,1.61,29.19-12.47a2.81,2.81,0,0,0-.93-1.09,17.82,17.82,0,0,0-4-2,159.47,159.47,0,0,0-17.18-5.34c-12.08-3.08-24.31-6-36.61-8a7.38,7.38,0,0,0-1.05,0,30.78,30.78,0,0,1-3.46-.24l-4.46-.35A74.93,74.93,0,0,0,445.86,857c-2.41.38-4.38,1.86-6.42,3.2-8,5.77-15.51,12.77-23.11,19.14-3.73,3.06-11.39,9.61-15.16,12.75a16.07,16.07,0,0,1-4.38,1.82c-1.94.59-3.92,1.1-5.89,1.56-11.27,2.73-23.9,4.81-35.39,6.9l1-1.82L365.91,921c8.41,18.16,19.79,43,28.1,61.25l-1.45-.47c-.08.35,61.89-33.77,60.6-32.5,5.19-17.43,15.33-52.76,20.47-70.11,1.17.32,7.71,2.12,8.79,2.38A137.47,137.47,0,0,0,502.13,885Zm0,0a143,143,0,0,1-19.71-3.42c-1-.3-7.59-2.06-8.8-2.38-4.72,17.21-14.76,52.8-19.51,70.27l-.06.22-.19.11-60.31,33.77-1,.54-.49-1c-12.19-25.75-26-55.47-38-81.43l-.71-1.51c9.29-1.69,28.08-4.83,37-6.95,1.93-.46,3.86-.93,5.75-1.44a16.42,16.42,0,0,0,3.64-1.39c.38-.37,9.89-8,10.6-8.65,2.36-1.89,7-5.72,9.29-7.66,7-5.67,13.73-11.89,21.46-16.66a11.82,11.82,0,0,1,4.41-1.69c1.43-.24,3-.55,4.46-.75a66.35,66.35,0,0,1,15.1-.47l3,.28a25.83,25.83,0,0,0,3.67.25c4.76.55,9.41,1.81,14.09,2.8,11.71,2.74,23.42,5.57,34.83,9.26a59.81,59.81,0,0,1,8.36,3.36,5,5,0,0,1,2.27,2,11.62,11.62,0,0,1-7.2,10.61c-6.85,3-14.69,2.58-22,2Z"/><path class="cls-13" d="M616.69,866.61c7.07-.41,13.78-.63,20.26-.69L617.49,786l-45.43,36q-9.46,1.95-50.19,16.41Q479,853.62,471.7,855.56q.93-.12,10,1.73,9.81,2,20.06,4.59,28.55,7.18,29.62,10.58-.63,15.31-29.23,12.51a140.91,140.91,0,0,1-19.63-3.41l-8.87-2.43-20,70.18.74,1.12a18.28,18.28,0,0,0,2.1,2.38c2.33,2.26,4.68,3.11,7,2.67,2.6-.54,5.45-2.61,8.6-6.25,1-1.16,1.91-2.36,2.85-3.7l1.06-1.64,12.44-38.59L476,943.89V945a6.84,6.84,0,0,0,.68,2.53q1.81,3.78,7.67,4.85c2.43.46,5-.79,7.83-3.71a27.22,27.22,0,0,0,2.49-3.07l.95-1.42,13.53-35.24-13.53,35.24.57,1.1a15.49,15.49,0,0,0,1.66,2.43c1.88,2.36,3.89,3.58,6,3.57s5.5-1.55,9.76-4.7a54.3,54.3,0,0,0,5.71-4.71l10.82-27.32-10.82,27.32.78.68a10,10,0,0,0,2.36,1.29,12.2,12.2,0,0,0,8.86,0,50.32,50.32,0,0,0,11.34-6.38,110.72,110.72,0,0,0,15.92-13.93q20.91-21.85,32.15-52.7,4.71-2.81,26-4.12Z"/><path class="cls-12" d="M616.69,866.61c6.72-.39,13.57-.69,20.21-.65l-9.73-40-9.82-40,.26.07-45.26,36.1c-8.59,2.15-17,5.06-25.39,7.92-25.07,8.52-49.77,18.26-75,26.23l-.36-1.61.23,0a30.75,30.75,0,0,1,3.92.53c3.86.71,7.67,1.5,11.52,2.33,10.21,2.23,20.37,4.67,30.39,7.59a81.61,81.61,0,0,1,11.21,4c1.44.77,3.06,1.43,3.67,3.16a13.61,13.61,0,0,1-1.76,6.57c-7.32,12.1-33.9,7-45.55,4.55-2.81-.58-9-2.31-11.86-3.06l1.57-.89-20,70.18-.17-1.07c1.72,2.65,4.26,5.59,7.55,5.72,4.6-.25,9-6,11.64-9.54l1-1.55-.16.29L487.31,905l2.32.76c0-.45-12.86,40-12.49,38.18l0,.84V945c.29,4,4.44,6.09,8.07,6.43,2,.07,3.88-1.2,5.4-2.58a23.85,23.85,0,0,0,3.25-3.76l.95-1.42-.1.16,13.7-35.17,1.54.61-13.7,35.17,0-.53c1.52,3,3.84,6.49,7.42,6.82A8.72,8.72,0,0,0,507,950a34.64,34.64,0,0,0,6.29-3.74,58.49,58.49,0,0,0,5.74-4.67c-.53,1.11,10.92-27.36,10.81-27.1l.73.28-11,27.17-.07-.31a10.61,10.61,0,0,0,7,2.76c6,.13,13.13-5,17.89-8.43,21.62-16.34,37.07-39.89,46.37-65.21a21.66,21.66,0,0,1,6.28-2,152.6,152.6,0,0,1,19.73-2.14Zm0,0A155.23,155.23,0,0,0,597,868.79a21.87,21.87,0,0,0-6.28,2A152.52,152.52,0,0,1,564,917.54c-7.29,8.56-15.55,16.48-25.06,22.57-3.84,2.3-7.92,4.8-12.58,4.78a10.8,10.8,0,0,1-7.26-2.83l-.17-.14.06-.18,10.7-27.37.73.28L519.7,942l-.06.13-.09.08A49.75,49.75,0,0,1,507.27,951a7.13,7.13,0,0,1-7.62-.52,17.5,17.5,0,0,1-4.92-6.26c.12-.3,13.36-35.25,13.48-35.59l1.53.61L496.38,944.5c-2.33,3.87-6.5,9.11-11.42,9-4.73-.33-9.83-3.21-10.15-8.45,0-.26,0-1,0-1.28,0,0,12.4-38.68,12.36-38.77l2.32.76c0,.18-12.44,38.58-12.41,38.76l-.1.17-1.05,1.55c-3.86,5.35-10.58,13.83-17.89,9.53a18.44,18.44,0,0,1-5.94-6.17l.18-.6,20-70.14.36-1.21,1.21.32c10.2,2.93,21,5.47,31.6,6.14,9,.49,24.19.46,24.72-11.64l.06.36a.92.92,0,0,0-.28-.34,5.35,5.35,0,0,0-.63-.49,26.79,26.79,0,0,0-5-2.39A232.94,232.94,0,0,0,501.92,863c-7.55-1.93-15.15-3.73-22.78-5.31a71.66,71.66,0,0,0-7.38-1.29l-2.82-1,2.47-.68c25.32-7.71,50-17.22,75.15-25.52,8.14-2.66,17.47-5.94,25.22-7.58.09,0,45.59-35.86,45.73-35.93l.07.22L627.26,826,637,866q-10.19,0-20.26.64Z"/></g></g><g id="C"><g class="cls-14"><g class="cls-15"><path class="cls-16" d="M224.5,652.5c6.37-3.57-1.25-31.34-1.25-31.34l9.24,10.05,8.28,14.26h0l-1.59,21.39s0,3.24-2.23,2.92c-1.28-.32-7.33-2.59-6.69-10.37v-9.72"/><path class="cls-17" d="M231.21,706.73H184.37c-7.33,0-13.39-7.13-13.39-15.88V675c0-8.75,6.06-15.88,13.39-15.88h46.84c7.33,0,13.39,7.13,13.39,15.88v15.88c0,8.75-6.06,15.88-13.39,15.88Zm-46.84-38.89c-2.23,0-4.46,2.91-4.46,7.13v15.88c0,4.21,2.55,7.13,4.46,7.13h46.84c2.23,0,4.46-2.92,4.46-7.13V675c0-4.22-2.55-7.13-4.46-7.13Z"/><path class="cls-18" d="M299.09,818.22a10.71,10.71,0,0,1-10.84,10.37H127.33c-5.74,0-10.84-4.54-10.84-10.37V702.84a10.71,10.71,0,0,1,10.84-10.37H288.25c5.74,0,10.84,4.54,10.84,10.37V818.22Z"/><path class="cls-19" d="M299.09,765.39V702.84a10.71,10.71,0,0,0-10.84-10.37H127.33a10.42,10.42,0,0,0-10.52,10.37v62.55Z"/><path class="cls-20" d="M302.59,749.19a10.71,10.71,0,0,1-10.83,10.37H124.14c-5.73,0-10.83-4.54-10.83-10.37V693.12a10.71,10.71,0,0,1,10.83-10.38H291.76c5.73,0,10.83,4.54,10.83,10.38v56.07Z"/><polygon class="cls-21" points="191.38 749.83 224.52 749.83 224.52 768.31 191.38 768.31 191.38 749.83 191.38 749.83"/><path class="cls-16" d="M225.16,625.7V587.78h-36v35l-6.37,13v21.71h0v9.73h0l.31,7.78c0,2.59,2.55,4.86,5.74,4.53a5.62,5.62,0,0,0,5.74-4.86h0a5.81,5.81,0,0,0,6.37,5.19,5.94,5.94,0,0,0,6.05-5.19h.32a6.57,6.57,0,0,0,6.38,5.84,6.27,6.27,0,0,0,6.05-5.84h.32c.32,2.92,3.19,5.19,6.37,5.19a5.84,5.84,0,0,0,6.06-5.84l-2-24.49,1,14.45h0v-1"/><polygon class="cls-22" points="180.54 554.4 233.76 554.4 233.76 607.55 180.54 607.55 180.54 554.4 180.54 554.4"/></g></g></g><g id="A"><g class="cls-23"><path class="cls-24" d="M790.9,617.36c-67.75,0-156.79,67.17-121.95,109.23,37.42,45,71.3-7.17,94.53,20.55,17.42,20.54-9.68,43,23.22,58.69C826.06,824.42,908.65,780.4,911.88,725c4.2-66.84-53.23-107.6-121-107.6Zm34.2,172.17c-13.55,4.24-27.43-1.31-31-12.72s4.51-24.13,18.06-28.69c13.55-4.24,27.42,1.3,31,12.71s-4.51,24.13-18.06,28.7Z"/><path class="cls-25" d="M712.5,701.81a17.79,17.79,0,0,1-17.74,17.94,17.94,17.94,0,1,1,17.74-17.94Z"/><path class="cls-26" d="M749.6,662.35a17.74,17.74,0,1,1-35.48,0,17.59,17.59,0,0,1,17.74-17.93,17.78,17.78,0,0,1,17.74,17.93Z"/><path class="cls-27" d="M804.45,647A17.75,17.75,0,1,1,769,647a17.59,17.59,0,0,1,17.74-17.94c9.68.33,17.75,8.16,17.75,17.94Z"/><path class="cls-28" d="M857.68,656.49a17.78,17.78,0,0,1-17.74,17.93c-10,0-17.42-8.15-17.42-17.93a17.79,17.79,0,0,1,17.74-17.94c10,0,17.42,7.83,17.42,17.94Z"/><path class="cls-29" d="M897,692a17.75,17.75,0,1,1-17.74-17.94A17.84,17.84,0,0,1,897,692Z"/><path class="cls-30" d="M892.2,746.48a17.75,17.75,0,1,1-17.74-17.93,17.84,17.84,0,0,1,17.74,17.93Z"/><path class="cls-31" d="M864.13,752.35a15.07,15.07,0,0,1,11-18.26,16.91,16.91,0,0,1,9,.66,15.36,15.36,0,0,0-13.55-3.59,15.05,15.05,0,0,0-11,18.26,15.46,15.46,0,0,0,9,10.43,11.9,11.9,0,0,1-4.52-7.5Z"/><path class="cls-31" d="M869.94,698.88a15,15,0,0,1,11-18.26,16.77,16.77,0,0,1,9,.65,15.36,15.36,0,0,0-13.55-3.59,15.07,15.07,0,0,0-11,18.26,15.47,15.47,0,0,0,9,10.44,15.51,15.51,0,0,1-4.52-7.5Z"/><path class="cls-31" d="M830.26,662a15.05,15.05,0,0,1,11-18.26,16.88,16.88,0,0,1,9,.65,15.39,15.39,0,0,0-13.55-3.59,15.07,15.07,0,0,0-11,18.26,15.45,15.45,0,0,0,9,10.44,13.89,13.89,0,0,1-4.52-7.5Z"/><path class="cls-31" d="M778.32,653.88a15,15,0,0,1,11-18.26,16.78,16.78,0,0,1,9,.65,15.36,15.36,0,0,0-13.55-3.59,15.06,15.06,0,0,0-11,18.26,15.48,15.48,0,0,0,9,10.44,11.89,11.89,0,0,1-4.51-7.5Z"/><path class="cls-31" d="M722.83,669.2a15.06,15.06,0,0,1,11-18.26,17,17,0,0,1,9,.65A15.35,15.35,0,0,0,729.28,648a15.05,15.05,0,0,0-11,18.26,15.46,15.46,0,0,0,9,10.43,19.27,19.27,0,0,1-4.51-7.5Z"/><path class="cls-31" d="M686.05,708.66a15.06,15.06,0,0,1,11-18.26,16.88,16.88,0,0,1,9,.65,15.39,15.39,0,0,0-13.55-3.59,15.07,15.07,0,0,0-11,18.26,15.46,15.46,0,0,0,9,10.44,13.93,13.93,0,0,1-4.51-7.5Z"/><path class="cls-32" d="M870.59,613.12c-3.88-6.2-4.2-14-1.94-20.87A37,37,0,0,1,881.23,575c1.94-1.63,3.87-2.93,5.49-4.56a16.16,16.16,0,0,0,2.58-17.28c4.51,3.26,7.1,8.48,8.06,14a55,55,0,0,1,0,16.3c-1,7.18-1.93,14.68-5.8,20.87-3.55,6.2-10.33,11.42-17.43,11.09a4,4,0,0,1-1.93-.33,4.29,4.29,0,0,1-1.61-2Z"/><path class="cls-33" d="M872.84,608.22a10.59,10.59,0,0,1-.64-2,20.81,20.81,0,0,1-.65-5.22c0-1,.33-2.28.33-3.59.32-1.3.64-2.6,1-3.58.65-1.31,1-2.61,1.94-3.59.65-1.3,1.61-2.28,2.26-3.59,3.55-4.56,7.74-8.15,10.32-11.08a10.06,10.06,0,0,0,1.62-2.29c1-.65,1-1.3,1.29-2s0-1,0-1.31v-.65a.32.32,0,0,0,.32.33c0,.32.32.65.32,1.3a6.45,6.45,0,0,1-.32,2.28,9.89,9.89,0,0,1-1.29,2.61c-2.26,3.59-6.45,7.5-9.68,11.74a20,20,0,0,0-2.26,3.26c-.64,1-1.29,2.29-1.93,3.26-.33,1-1,2.29-1.3,3.26a11.84,11.84,0,0,0-.64,3.27,6.44,6.44,0,0,1-.32,2.6v2.29a14.56,14.56,0,0,0-.33,2.6Z"/><path class="cls-33" d="M892.2,577.25a5.81,5.81,0,0,0,.32,1.63,4.18,4.18,0,0,1-.32,2,8,8,0,0,1-1.29,2.29c-2.26,3.26-5.81,6.52-8.71,10.11l-1.94,2.93a13.55,13.55,0,0,0-1.61,2.93,20.82,20.82,0,0,0-1.93,5.87,26.59,26.59,0,0,0-.65,4.24,4,4,0,0,1-.32,1.63,5.81,5.81,0,0,0-.32-1.63c0-1-.33-2.61-.33-4.56a16.85,16.85,0,0,1,1.29-6.52,10.16,10.16,0,0,1,1.62-3.26,20,20,0,0,1,2.25-3.27c3.23-4.23,7.42-6.84,9.68-9.45.65-.65,1-1.31,1.62-2a5.51,5.51,0,0,0,.64-1.63,1.59,1.59,0,0,1,0-1.3Z"/><path class="cls-33" d="M889.94,590.29a2.55,2.55,0,0,1-.32,1,24.32,24.32,0,0,0-1,2.61c-.64,2.28-1,5.21-2.26,8.15-.32.65-.64,1.63-1,2.28a10.9,10.9,0,0,1-1.29,2,3.23,3.23,0,0,1-1.62,1.3c-.64.33-1.29,1-1.61,1a10.75,10.75,0,0,1-3.87,1,3.75,3.75,0,0,1,1-.65c.64-.33,1.29-1,2.25-1.63.33-.33,1-.66,1.29-1.31.33-.32.65-1,1.3-1.63a4.36,4.36,0,0,0,1-1.63c.33-.65.65-1.3,1-1.95.65-1.31,1-2.94,1.61-4.24A12.17,12.17,0,0,1,888,592.9a21,21,0,0,1,1.61-2.28l.32-.33Z"/><path class="cls-34" d="M789.29,834.85l51.94-162.06c1-2.94,3.55-3.91,6.45-2.94l11.61,3.92c2.91,1,3.55,3.91,2.26,6.52L799.29,838.44a5.1,5.1,0,0,1-6.13,3.26h0c-3.23-1-4.84-3.91-3.87-6.85Z"/><path class="cls-35" d="M839.61,675.4l28.72-66.85a11.17,11.17,0,0,0,13.55,4.89l-20.33,70.44c-3.87,5.54-22.9.65-21.94-8.48Z"/><path class="cls-36" d="M871.88,615.4a6.44,6.44,0,0,1-3.55-2.94L841.87,675.4a8,8,0,0,0,6.13,6.52l23.88-66.52Z"/><path class="cls-37" d="M831.23,554.42l-2.58,32a11.55,11.55,0,0,1-10.33-.65l.32-32.29,12.59,1Z"/><path class="cls-34" d="M825.74,645.4c2.26,0,3.23,2,3.23,4.24L815.74,868.11c-.32,3.59-2.26,6.2-4.84,6.53h0c-2.9.32-5.48-2.94-5.48-7.18l7.42-218.8a3.67,3.67,0,0,1,3.87-3.59l9,.33Z"/><path class="cls-38" d="M825.74,645.4c2.26,0,3.23,2,3.23,4.24L815.74,868.11c-.32,3.59-2.26,6.2-4.84,6.53h0c-2.9.32-5.48-2.94-5.48-7.18l7.42-218.8a3.67,3.67,0,0,1,3.87-3.59l9,.33Z"/><path class="cls-35" d="M828.65,586.38v68.15c-1.94,3.91-16.14,5.54-17.1-1.31L818,585.73a24,24,0,0,0,10.65.65Z"/><path class="cls-36" d="M822.19,588.66c-1.29,0-2.26,0-2.9-.65l-5.49,63.91c1,2.61,2.91,2.94,5.49,2.94l2.9-66.2Z"/><path class="cls-39" d="M821.87,580.83c0-.32-.32-.65-.64-1a17,17,0,0,1-1.3-3.27c-.64-2.93,0-6.84-.32-11.08a67.7,67.7,0,0,1-.32-11.09v-.33h1v.33c0,2.94,1.29,6.52,1.29,11.09.32,4.56-1,8.48-1,11.08a9.31,9.31,0,0,0,.32,3.27c.65.32,1,.65,1,1Z"/><path class="cls-39" d="M825.74,569.42a25,25,0,0,0-1.29,3.59c-.32,1-.32,2-.64,2.61v1a2.48,2.48,0,0,0-.33-1,7.4,7.4,0,0,1-.32-2.94c0-2.28,1.29-5.54,1-8.48-.32-3.26-1.29-6.19-1.29-8.8v-1.63h.64c0,.32.33,1,.33,1.3.64,2.29,2.25,4.89,2.58,8.81.32,2.28-.33,3.91-.65,5.54Z"/><path class="cls-39" d="M829.61,566.81a7.92,7.92,0,0,1-.64,2.94,9.44,9.44,0,0,1-.65,2.93,37.52,37.52,0,0,0-1.61,4.24,11.46,11.46,0,0,0-.32,2.94c0,.65,0,1,.32,1a8.64,8.64,0,0,1-1.29-4.24,34.65,34.65,0,0,1,.64-4.89c.33-.65.33-1.63.65-2.6a7.32,7.32,0,0,0,.32-2.61c.32-3.59,0-7.5,0-10.11v-2.29h.65c0,.66.32,1.31.32,2.29a24.26,24.26,0,0,1,1.61,10.43Z"/><path class="cls-40" d="M845.5,768.5c-1.29,8.48-10.4,17.77-20.73,21-13.55,4.24-27.42-1.31-31-12.72a17.54,17.54,0,0,1-.64-7.17L772.5,768.5c-.65,13.37-6.77,27.22,14.2,37.33,27.75,13,75-6,102.8-37.33l-46,1.14h0Z"/></g><polyline class="cls-41" points="846.69 763.71 844 778 816.16 796.57 791.31 787.66 792.8 760.71 773 766 771.85 778.68 819.29 805.96 884 774 891.37 765.25"/></g><g id="I"><g class="cls-42"><path class="cls-43" d="M905.47,527.07a19.41,19.41,0,0,1-8,1.9l-215.37.54A18.82,18.82,0,0,1,666,501.35l84.92-149.47A67.91,67.91,0,0,0,759.75,318V257.65h-7.24a12.66,12.66,0,0,1-9.1-3.79,12.14,12.14,0,0,1-3.49-9.21,13.25,13.25,0,0,1,13.13-12.45l71.26-.27a12.66,12.66,0,0,1,9.1,3.79,12.49,12.49,0,0,1,3.75,9.2A13.24,13.24,0,0,1,824,257.38H819v60.38a68.07,68.07,0,0,0,9.11,33.85l85.45,149.2a18,18,0,0,1,0,18.68,19.73,19.73,0,0,1-8,7.58ZM749,236.8a8.6,8.6,0,0,0-5.09,7.58,9.81,9.81,0,0,0,2.41,6.5,8.66,8.66,0,0,0,6.16,2.71h11.26V318a73.7,73.7,0,0,1-9.38,36L669.47,503a14.63,14.63,0,0,0,12.59,21.94l215.37-.55A14.62,14.62,0,0,0,910,502.43L824.57,353.5a73.11,73.11,0,0,1-9.64-36V253.05H824a9.1,9.1,0,0,0,9.1-8.4,9.77,9.77,0,0,0-2.41-6.5,8.67,8.67,0,0,0-6.16-2.7l-71.52.27a11.17,11.17,0,0,0-4,1.08Z"/><path class="cls-43" d="M890.47,492.14l-35.63-62.28H829.93a11.79,11.79,0,1,0-19.29,0H782.52a21.27,21.27,0,0,0,1.6-8.39,22.5,22.5,0,1,0-45,0,22.25,22.25,0,0,0,1.61,8.39H724.39l-36.17,62.82a13.91,13.91,0,0,0,12.06,20.85l89.2-.27,89.2-.27a13.79,13.79,0,0,0,11.79-20.85Zm-72.33-8.39a9.75,9.75,0,1,1,9.65-9.75,9.66,9.66,0,0,1-9.65,9.75Z"/><path class="cls-43" d="M813.86,391.68a5.69,5.69,0,1,0-5.63-5.68,5.52,5.52,0,0,0,5.63,5.68Z"/><path class="cls-43" d="M785.2,356.48a7.85,7.85,0,1,0-7.77-7.85,7.65,7.65,0,0,0,7.77,7.85Z"/></g></g><path class="cls-44" d="M530.08,68.73H462.14L439,98.54H419.81l-12-11.63H381.13v54.87H410.4l5.4-11.33h15.33s31,4.77,37.28,39.2H535.3L547,134.77c16.89-39.51,64.63,4.62,64.63,4.62l3-1.64c-18.82-66.94-84.49-69-84.49-69Z"/><polygon class="cls-44" points="468.33 169.65 534.24 169.65 534.24 208.79 468.33 208.79 468.33 169.65 468.33 169.65"/><g class="cls-45"><polygon class="cls-44" points="486.86 208.79 515.7 208.79 515.7 292.55 486.86 292.55 486.86 208.79 486.86 208.79"/><path class="cls-46" d="M549.34,446.34c-2.26-15.61-14.83-18.44-14.83-18.44V308.17c-.87-15.17-11.86-15.62-11.86-15.62H479.91s-11,.45-11.86,15.62V427.75s-12.56,2.83-14.83,18.44h96.12v.15Z"/><path class="cls-44" d="M549.34,446.34c-2.26-15.61-14.83-18.44-14.83-18.44V308.17c-.87-15.17-11.86-15.62-11.86-15.62H479.91s-11,.45-11.86,15.62V427.75s-12.56,2.83-14.83,18.44h96.12v.15Z"/><path class="cls-44" d="M440.86,116.79s37,2.8,43.26,38.45"/></g><g class="cls-47"><path class="cls-48" d="M307,511.13a14.61,14.61,0,0,1-14.56,14.7H124.83a14.62,14.62,0,0,1-14.57-14.7V258.25c0-8.14,16.11-14.71,14.57-14.71h167.6A14.61,14.61,0,0,1,307,258.25V511.13Z"/><polygon class="cls-48" points="284.82 311.61 132.66 311.61 136.19 277.52 288.35 277.52 284.82 311.61 284.82 311.61"/><polygon class="cls-49" points="284.82 311.61 132.66 311.61 136.19 277.52 288.35 277.52 284.82 311.61 284.82 311.61"/><polygon class="cls-48" points="284.82 343.91 132.66 343.91 136.19 331.55 288.35 331.55 284.82 343.91 284.82 343.91"/><polygon class="cls-48" points="176.13 396.05 147.89 396.05 151.53 367.64 179.78 367.64 176.13 396.05 176.13 396.05"/><polygon class="cls-48" points="176.13 396.05 147.89 396.05 151.53 367.64 179.78 367.64 176.13 396.05 176.13 396.05"/><polygon class="cls-48" points="198.2 367.64 222.81 367.64 222.81 396.16 198.2 396.16 198.2 367.64 198.2 367.64"/><polygon class="cls-48" points="198.2 367.64 222.81 367.64 222.81 396.16 198.2 396.16 198.2 367.64 198.2 367.64"/><polygon class="cls-48" points="269.48 396.05 241.23 396.05 244.88 367.64 273.12 367.64 269.48 396.05 269.48 396.05"/><polygon class="cls-48" points="269.48 396.05 241.23 396.05 244.88 367.64 273.12 367.64 269.48 396.05 269.48 396.05"/><polygon class="cls-48" points="147.89 415.44 179.67 415.44 179.67 443.95 147.89 443.95 147.89 415.44 147.89 415.44"/><polygon class="cls-48" points="147.89 415.44 179.67 415.44 179.67 443.95 147.89 443.95 147.89 415.44 147.89 415.44"/><polygon class="cls-48" points="194.56 415.44 226.34 415.44 226.34 443.95 194.56 443.95 194.56 415.44 194.56 415.44"/><polygon class="cls-48" points="194.56 415.44 226.34 415.44 226.34 443.95 194.56 443.95 194.56 415.44 194.56 415.44"/><polygon class="cls-48" points="269.48 443.95 241.23 443.95 244.88 415.44 273.12 415.44 269.48 443.95 269.48 443.95"/><polygon class="cls-48" points="269.48 443.95 241.23 443.95 244.88 415.44 273.12 415.44 269.48 443.95 269.48 443.95"/><polygon class="cls-48" points="147.89 463.34 179.67 463.34 179.67 491.86 147.89 491.86 147.89 463.34 147.89 463.34"/><polygon class="cls-48" points="147.89 463.34 179.67 463.34 179.67 491.86 147.89 491.86 147.89 463.34 147.89 463.34"/><polygon class="cls-48" points="194.56 463.34 222.81 463.34 222.81 491.86 194.56 491.86 194.56 463.34 194.56 463.34"/><polygon class="cls-48" points="194.56 463.34 222.81 463.34 222.81 491.86 194.56 491.86 194.56 463.34 194.56 463.34"/><polygon class="cls-48" points="241.23 463.34 269.48 463.34 269.48 491.86 241.23 491.86 241.23 463.34 241.23 463.34"/><polygon class="cls-48" points="241.23 463.34 269.48 463.34 269.48 491.86 241.23 491.86 241.23 463.34 241.23 463.34"/><path class="cls-48" d="M288.68,412.65v81a14.62,14.62,0,0,1-14.57,14.7h-48"/></g></g></g><g id="Calque_5" data-name="Calque 5"><text class="cls-50" transform="translate(441.15 460.96)">R</text><text class="cls-50" transform="translate(564.15 526.96)">I</text><text class="cls-50" transform="translate(565.15 652.96)">A</text><text class="cls-50" transform="translate(451.15 696.96)">S</text><text class="cls-50" transform="translate(353.15 651.96)">E</text><text class="cls-50" transform="translate(328.15 528.96)">C</text></g></svg>